<svg xmlns="http://www.w3.org/2000/svg" width="512" height="512" viewBox="0 0 512 512" role="img" aria-label="Créativité">
  <defs>
    <radialGradient id="bg" cx="30%" cy="25%" r="80%">
      <stop offset="0%" stop-color="#FFD2E1"/>
      <stop offset="55%" stop-color="#F06E9D"/>
      <stop offset="100%" stop-color="#B73B67"/>
    </radialGradient>
    <radialGradient id="shine" cx="25%" cy="20%" r="50%">
      <stop offset="0%" stop-color="#FFFFFF" stop-opacity="0.90"/>
      <stop offset="60%" stop-color="#FFFFFF" stop-opacity="0.15"/>
      <stop offset="100%" stop-color="#FFFFFF" stop-opacity="0"/>
    </radialGradient>
    <filter id="softShadow" x="-20%" y="-20%" width="140%" height="140%">
      <feDropShadow dx="0" dy="14" stdDeviation="12" flood-color="#000" flood-opacity="0.25"/>
    </filter>
  </defs>

  <circle cx="256" cy="256" r="220" fill="url(#bg)" filter="url(#softShadow)"/>
  <circle cx="256" cy="256" r="205" fill="none" stroke="#FFFFFF" stroke-opacity="0.35" stroke-width="10"/>
  <ellipse cx="190" cy="160" rx="120" ry="90" fill="url(#shine)"/>

  <g fill="none" stroke="#FFFFFF" stroke-width="18" stroke-linecap="round" stroke-linejoin="round">
    <path d="M256 140c-64 0-116 50-116 112 0 44 22 76 52 100 14 12 22 26 22 44h84c0-18 8-32 22-44 30-24 52-56 52-100 0-62-52-112-116-112z"/>
    <path d="M214 396h84"/>
    <path d="M224 430h64"/>
    <path d="M198 248c8-34 38-58 74-58" opacity="0.75"/>
    <path d="M334 182l18-18M178 182l-18-18M368 248h-26M144 248h-26" opacity="0.75"/>
  </g>
</svg>
