<svg xmlns="http://www.w3.org/2000/svg" width="512" height="512" viewBox="0 0 512 512" role="img" aria-label="Formes">
  <defs>
    <radialGradient id="bg" cx="30%" cy="25%" r="80%">
      <stop offset="0%" stop-color="#FFE0A8"/>
      <stop offset="55%" stop-color="#F0A54A"/>
      <stop offset="100%" stop-color="#C77723"/>
    </radialGradient>
    <radialGradient id="shine" cx="25%" cy="20%" r="50%">
      <stop offset="0%" stop-color="#FFFFFF" stop-opacity="0.90"/>
      <stop offset="60%" stop-color="#FFFFFF" stop-opacity="0.15"/>
      <stop offset="100%" stop-color="#FFFFFF" stop-opacity="0"/>
    </radialGradient>
    <filter id="softShadow" x="-20%" y="-20%" width="140%" height="140%">
      <feDropShadow dx="0" dy="14" stdDeviation="12" flood-color="#000" flood-opacity="0.25"/>
    </filter>
  </defs>

  <circle cx="256" cy="256" r="220" fill="url(#bg)" filter="url(#softShadow)"/>
  <circle cx="256" cy="256" r="205" fill="none" stroke="#FFFFFF" stroke-opacity="0.35" stroke-width="10"/>
  <ellipse cx="190" cy="160" rx="120" ry="90" fill="url(#shine)"/>

  <path fill="none" stroke="#FFFFFF" stroke-width="18" stroke-linejoin="round" stroke-linecap="round"
        d="M196 196h72c0-22 18-40 40-40s40 18 40 40h72v72c22 0 40 18 40 40s-18 40-40 40v72h-72c0 22-18 40-40 40s-40-18-40-40h-72v-72c-22 0-40-18-40-40s18-40 40-40v-72z"/>
</svg>
