<svg xmlns="http://www.w3.org/2000/svg" width="512" height="512" viewBox="0 0 512 512" role="img" aria-label="Logique">
  <defs>
    <radialGradient id="bg" cx="30%" cy="25%" r="80%">
      <stop offset="0%" stop-color="#FFE7A8"/>
      <stop offset="55%" stop-color="#F4B34F"/>
      <stop offset="100%" stop-color="#C97A2A"/>
    </radialGradient>
    <radialGradient id="shine" cx="25%" cy="20%" r="50%">
      <stop offset="0%" stop-color="#FFFFFF" stop-opacity="0.90"/>
      <stop offset="60%" stop-color="#FFFFFF" stop-opacity="0.15"/>
      <stop offset="100%" stop-color="#FFFFFF" stop-opacity="0"/>
    </radialGradient>
    <filter id="softShadow" x="-20%" y="-20%" width="140%" height="140%">
      <feDropShadow dx="0" dy="14" stdDeviation="12" flood-color="#000" flood-opacity="0.25"/>
    </filter>
  </defs>

  <circle cx="256" cy="256" r="220" fill="url(#bg)" filter="url(#softShadow)"/>
  <circle cx="256" cy="256" r="205" fill="none" stroke="#FFFFFF" stroke-opacity="0.35" stroke-width="10"/>
  <ellipse cx="190" cy="160" rx="120" ry="90" fill="url(#shine)"/>

  <g fill="none" stroke="#FFFFFF" stroke-width="18" stroke-linecap="round" stroke-linejoin="round">
    <path d="M230 360c-32 0-56-24-56-56 0-16 6-30 16-40-8-10-12-22-12-36 0-32 24-56 56-56 10-24 34-40 62-40 38 0 68 30 68 68 0 10-2 18-6 26 16 10 26 28 26 48 0 32-24 58-56 60-10 18-30 26-50 26h-48z"/>
    <path d="M224 206c14 0 26 12 26 26"/>
    <path d="M206 248c18 0 32 14 32 32"/>
    <path d="M278 200c-14 0-26 12-26 26"/>
    <path d="M306 244c-18 0-32 14-32 32"/>
    <path d="M256 180v200"/>
  </g>
</svg>
