<svg xmlns="http://www.w3.org/2000/svg" width="512" height="512" viewBox="0 0 512 512" role="img" aria-label="Mots">
  <defs>
    <radialGradient id="bg" cx="30%" cy="25%" r="80%">
      <stop offset="0%" stop-color="#F1C7FF"/>
      <stop offset="55%" stop-color="#C46AEF"/>
      <stop offset="100%" stop-color="#7A2FB8"/>
    </radialGradient>
    <radialGradient id="shine" cx="25%" cy="20%" r="50%">
      <stop offset="0%" stop-color="#FFFFFF" stop-opacity="0.90"/>
      <stop offset="60%" stop-color="#FFFFFF" stop-opacity="0.15"/>
      <stop offset="100%" stop-color="#FFFFFF" stop-opacity="0"/>
    </radialGradient>
    <filter id="softShadow" x="-20%" y="-20%" width="140%" height="140%">
      <feDropShadow dx="0" dy="14" stdDeviation="12" flood-color="#000" flood-opacity="0.25"/>
    </filter>
  </defs>

  <circle cx="256" cy="256" r="220" fill="url(#bg)" filter="url(#softShadow)"/>
  <circle cx="256" cy="256" r="205" fill="none" stroke="#FFFFFF" stroke-opacity="0.35" stroke-width="10"/>
  <ellipse cx="190" cy="160" rx="120" ry="90" fill="url(#shine)"/>

  <g fill="none" stroke="#FFFFFF" stroke-width="18" stroke-linecap="round" stroke-linejoin="round">
    <path d="M140 196c46-18 88-18 126 0v186c-38-18-80-18-126 0V196z"/>
    <path d="M372 196c-46-18-88-18-126 0v186c38-18 80-18 126 0V196z"/>
    <path d="M256 206v182"/>
    <path d="M176 246h66M176 280h66M176 314h66" opacity="0.75"/>
    <path d="M270 246h66M270 280h66M270 314h66" opacity="0.75"/>
  </g>
</svg>
